# xmcd
#
# Track frame offsets:
# 150
# 11028
# 26791
# 43400
# 61292
# 76744
# 90805
# 100487
# 117193
# 129093
# 142589
#
# Disc length: 2211 seconds
#
#
# Revision: 0
# Processed by: cddbd v1.5.1PL0 Copyright (c) Steve Scherf et al.
# Submitted via: FreeRIP 2.93 
#
DISCID=7f08a10b
DTITLE=Jennings, Tillis, Bare, Reed - Old Dogs - Volume One
DYEAR=1998
DGENRE=Country
TTITLE0=Old dogs
TTITLE1=Come back when you're younger
TTITLE2=I don't do it no more
TTITLE3=She'd rather be homeless
TTITLE4=Cut the mustard
TTITLE5=Young man's job
TTITLE6=When I was
TTITLE7=Couch potato
TTITLE8=Hard when it ain't
TTITLE9=Jittabug
TTITLE10=Me and Jimmie Rodgers
EXTD=
EXTT0=
EXTT1=
EXTT2=
EXTT3=
EXTT4=
EXTT5=
EXTT6=
EXTT7=
EXTT8=
EXTT9=
EXTT10=
PLAYORDER=
